<svg id="Capa_1" data-name="Capa 1" xmlns="http://www.w3.org/2000/svg" viewBox="0 0 1000 1000">
  <defs>
    <style>
      .cls-1 {
        fill: #000;
      }

      .cls-1, .cls-2 {
        stroke-width: 0px;
      }

      .cls-2 {
        fill: #fff;
      }
    </style>
  </defs>
  <rect class="cls-2" x="19" y="19" width="962" height="962" rx="129.95" ry="129.95"/>
  <g>
    <polygon class="cls-1" points="314.45 764.58 341.4 717.91 215.48 499.8 161.58 499.8 314.45 764.58"/>
    <polygon class="cls-1" points="370.87 740.32 343.92 787 656.08 787 629.13 740.32 370.87 740.32"/>
    <polygon class="cls-1" points="784.52 499.8 658.6 717.91 685.55 764.58 838.42 499.8 784.52 499.8"/>
    <polygon class="cls-1" points="601.27 618.61 628.22 665.29 723.76 499.8 669.86 499.8 601.27 618.61"/>
    <polygon class="cls-1" points="371.78 665.29 398.73 618.61 330.14 499.8 276.24 499.8 371.78 665.29"/>
    <polygon class="cls-1" points="401.25 687.7 598.75 687.7 571.8 641.03 428.2 641.03 401.25 687.7"/>
    <polygon class="cls-1" points="485.04 542.58 458.09 589.26 541.91 589.26 514.96 542.58 485.04 542.58"/>
    <polygon class="cls-1" points="428.62 566.84 455.57 520.16 443.82 499.8 389.92 499.8 428.62 566.84"/>
    <polygon class="cls-1" points="544.43 520.16 571.38 566.84 610.08 499.8 556.18 499.8 544.43 520.16"/>
  </g>
</svg>