<svg id="Capa_1" data-name="Capa 1" xmlns="http://www.w3.org/2000/svg" viewBox="0 0 1052 1052">
  <defs>
    <style>
      .cls-1 {
        fill: #000;
        stroke-width: 0px;
      }
    </style>
  </defs>
  <polygon class="cls-1" points="307.37 668.79 339.13 613.79 190.75 356.8 127.25 356.8 307.37 668.79"/>
  <polygon class="cls-1" points="373.85 640.2 342.1 695.2 709.9 695.2 678.15 640.2 373.85 640.2"/>
  <polygon class="cls-1" points="861.25 356.8 712.87 613.79 744.63 668.79 924.75 356.8 861.25 356.8"/>
  <polygon class="cls-1" points="645.32 496.79 677.08 551.79 789.66 356.8 726.15 356.8 645.32 496.79"/>
  <polygon class="cls-1" points="374.92 551.79 406.68 496.79 325.85 356.8 262.34 356.8 374.92 551.79"/>
  <polygon class="cls-1" points="409.65 578.2 642.35 578.2 610.6 523.2 441.4 523.2 409.65 578.2"/>
  <polygon class="cls-1" points="508.37 407.2 476.62 462.2 575.38 462.2 543.63 407.2 508.37 407.2"/>
  <polygon class="cls-1" points="441.9 435.79 473.65 380.79 459.8 356.8 396.29 356.8 441.9 435.79"/>
  <polygon class="cls-1" points="578.35 380.79 610.1 435.79 655.71 356.8 592.2 356.8 578.35 380.79"/>
</svg>